<?xml version="1.0" standalone="no"?>
<!DOCTYPE svg PUBLIC "-//W3C//DTD SVG 20010904//EN"
 "http://www.w3.org/TR/2001/REC-SVG-20010904/DTD/svg10.dtd">
<svg version="1.0" xmlns="http://www.w3.org/2000/svg"
 width="139.000000pt" height="139.000000pt" viewBox="0 0 139.000000 139.000000"
 preserveAspectRatio="xMidYMid meet">
<metadata>
Created by potrace 1.14, written by Peter Selinger 2001-2017
</metadata>
<g transform="translate(0.000000,139.000000) scale(0.100000,-0.100000)"
fill="#000000" stroke="none">
<path d="M721 1319 c-13 -5 -32 -19 -42 -30 -10 -11 -71 -77 -136 -146 -65
-69 -127 -135 -138 -147 -19 -21 -29 -22 -189 -22 l-169 -1 -24 -27 c-29 -35
-29 -68 1 -103 l24 -28 173 0 c96 0 175 -4 177 -8 1 -4 -43 -51 -99 -105 -128
-123 -149 -167 -107 -228 l23 -34 154 1 c84 0 155 -2 158 -5 3 -3 6 -74 7
-159 2 -164 4 -169 55 -196 46 -25 71 -8 256 179 l180 180 158 3 c153 2 159 3
178 26 26 31 24 73 -3 98 -21 19 -36 21 -198 22 -96 1 -176 3 -177 5 -2 1 53
60 122 130 140 142 148 160 98 216 l-28 30 -152 2 c-84 1 -153 2 -154 2 0 1
-3 71 -5 156 -4 150 -5 156 -30 178 -27 23 -71 28 -113 11z m-7 -469 l-4 -30
124 0 123 0 -95 -92 c-53 -51 -112 -110 -130 -130 -19 -21 -38 -35 -43 -32 -5
3 -7 9 -4 13 2 5 -50 9 -118 9 -67 0 -130 1 -140 1 -13 1 8 27 70 89 96 93
212 202 217 202 2 0 2 -13 0 -30z"/>
</g>
</svg>
